{
	"asset":{
		"generator":"Khronos glTF Blender I/O v3.6.27",
		"version":"2.0"
	},
	"scene":0,
	"scenes":[
		{
			"name":"Scene",
			"nodes":[
				0
			]
		}
	],
	"nodes":[
		{
			"mesh":0,
			"name":"terrain_node"
		}
	],
	"materials":[
		{
			"doubleSided":true,
			"name":"Grass",
			"normalTexture":{
				"index":0
			},
			"pbrMetallicRoughness":{
				"baseColorTexture":{
					"index":1
				},
				"metallicFactor":0,
				"metallicRoughnessTexture":{
					"index":2
				}
			}
		}
	],
	"meshes":[
		{
			"name":"terrain",
			"primitives":[
				{
					"attributes":{
						"POSITION":0,
						"NORMAL":1,
						"TEXCOORD_0":2
					},
					"indices":3,
					"material":0
				}
			]
		}
	],
	"textures":[
		{
			"sampler":0,
			"source":0
		},
		{
			"sampler":0,
			"source":1
		},
		{
			"sampler":0,
			"source":2
		}
	],
	"images":[
		{
			"mimeType":"image/ktx2",
			"name":"normal_grass_1",
			"uri":"normal_grass_1.ktx2"
		},
		{
			"mimeType":"image/ktx2",
			"name":"base_color_grass_1",
			"uri":"base_color_grass_1.ktx2"
		},
		{
			"mimeType":"image/ktx2",
			"name":"roughness_grass_1",
			"uri":"roughness_grass_1.ktx2"
		}
	],
	"accessors":[
		{
			"bufferView":0,
			"componentType":5126,
			"count":16384,
			"max":[
				200,
				45.02625274658203,
				800
			],
			"min":[
				-200,
				0.009936624206602573,
				-800
			],
			"type":"VEC3"
		},
		{
			"bufferView":1,
			"componentType":5126,
			"count":16384,
			"type":"VEC3"
		},
		{
			"bufferView":2,
			"componentType":5126,
			"count":16384,
			"type":"VEC2"
		},
		{
			"bufferView":3,
			"componentType":5123,
			"count":96774,
			"type":"SCALAR"
		},
		{
			"bufferView":4,
			"componentType":5126,
			"count":369,
			"max":[
				0.5531193614006042,
				0.6150830388069153,
				0.5847378969192505
			],
			"min":[
				-0.8064470887184143,
				-0.006497568916529417,
				-0.4466535449028015
			],
			"type":"VEC3"
		},
		{
			"bufferView":5,
			"componentType":5126,
			"count":369,
			"type":"VEC3"
		},
		{
			"bufferView":6,
			"componentType":5123,
			"count":561,
			"type":"SCALAR"
		},
		{
			"bufferView":7,
			"componentType":5126,
			"count":96,
			"max":[
				0.4675697684288025,
				0.4431178867816925,
				0.24009539186954498
			],
			"min":[
				-0.28657302260398865,
				0.27684929966926575,
				-0.32287976145744324
			],
			"type":"VEC3"
		},
		{
			"bufferView":8,
			"componentType":5126,
			"count":96,
			"type":"VEC3"
		},
		{
			"bufferView":9,
			"componentType":5123,
			"count":135,
			"type":"SCALAR"
		}
	],
	"bufferViews":[
		{
			"buffer":0,
			"byteLength":196608,
			"byteOffset":0,
			"target":34962
		},
		{
			"buffer":0,
			"byteLength":196608,
			"byteOffset":196608,
			"target":34962
		},
		{
			"buffer":0,
			"byteLength":131072,
			"byteOffset":393216,
			"target":34962
		},
		{
			"buffer":0,
			"byteLength":193548,
			"byteOffset":524288,
			"target":34963
		},
		{
			"buffer":0,
			"byteLength":4428,
			"byteOffset":717836,
			"target":34962
		},
		{
			"buffer":0,
			"byteLength":4428,
			"byteOffset":722264,
			"target":34962
		},
		{
			"buffer":0,
			"byteLength":1122,
			"byteOffset":726692,
			"target":34963
		},
		{
			"buffer":0,
			"byteLength":1152,
			"byteOffset":727816,
			"target":34962
		},
		{
			"buffer":0,
			"byteLength":1152,
			"byteOffset":728968,
			"target":34962
		},
		{
			"buffer":0,
			"byteLength":270,
			"byteOffset":730120,
			"target":34963
		}
	],
	"samplers":[
		{
			"magFilter":9729,
			"minFilter":9987
		}
	],
	"buffers":[
		{
			"byteLength":730392,
			"uri":"terrain.bin"
		}
	]
}
